<svg width="20" height="20" viewBox="0 0 20 20" fill="none" xmlns="http://www.w3.org/2000/svg">
<path d="M18.3298 6.30975C18.3184 4.51344 17.5175 3.1504 15.9677 2.24307C15.2858 1.84362 14.5322 1.6708 13.7418 1.67039C11.2469 1.66835 8.75191 1.66224 6.25695 1.67202C4.22627 1.67976 2.52981 2.91929 1.88743 4.85501C1.79286 5.14033 1.75822 5.44604 1.69626 5.74237C1.68525 5.79495 1.67629 5.84794 1.6665 5.90052V14.1023C1.71134 14.3518 1.7358 14.607 1.80387 14.8499C2.32071 16.6947 3.51948 17.8279 5.38835 18.2501C5.55587 18.288 5.72829 18.306 5.89826 18.3333H14.1017C14.3516 18.2885 14.6067 18.264 14.8501 18.1959C16.6929 17.6799 17.8293 16.4832 18.245 14.6163C18.3119 14.3176 18.329 14.0029 18.3298 13.6956C18.3363 11.2336 18.3453 8.77169 18.3298 6.30975ZM10.0073 14.5686C7.49811 14.5829 5.43074 12.5188 5.43196 10.0006C5.43318 7.48488 7.46673 5.44848 9.99266 5.43422C12.5019 5.41995 14.5692 7.48366 14.568 10.0018C14.5668 12.5176 12.5333 14.554 10.0073 14.5686ZM14.8436 6.54657C14.0895 6.54412 13.4553 5.90908 13.4557 5.15664C13.4557 4.40175 14.0879 3.77241 14.8456 3.77322C15.6074 3.77363 16.2315 4.39849 16.2294 5.15908C16.2278 5.91723 15.5968 6.54902 14.8436 6.54657Z" fill="#555555"/>
<path d="M1.6665 14.1027C1.71134 14.3521 1.7358 14.6073 1.80387 14.8502C2.32071 16.695 3.51948 17.8282 5.38835 18.2505C5.55587 18.2884 5.72829 18.3063 5.89826 18.3336C4.48754 18.3336 3.07682 18.3336 1.6665 18.3336C1.6665 16.9233 1.6665 15.513 1.6665 14.1027Z" fill="white"/>
<path d="M13.5839 10.0094C13.5773 11.9912 11.96 13.5975 9.9847 13.5845C8.00618 13.5714 6.41 11.9655 6.41652 9.99389C6.42305 8.01252 8.04083 6.40533 10.0161 6.41878C11.9946 6.43183 13.5904 8.03779 13.5839 10.0094Z" fill="#555555"/>
<path d="M15.245 5.15555C15.2458 5.37484 15.0604 5.56152 14.8435 5.5603C14.6287 5.55908 14.4392 5.36587 14.4424 5.15147C14.4461 4.94074 14.6271 4.76058 14.839 4.75772C15.0612 4.75487 15.2442 4.93422 15.245 5.15555Z" fill="#555555"/>
</svg>
