<svg width="32" height="32" viewBox="0 0 32 32" fill="none" xmlns="http://www.w3.org/2000/svg">
<g clip-path="url(#clip0_606_958)">
<path d="M26.7424 22.4L26.8757 22.5333C27.1784 22.8386 27.5534 23.0623 27.9657 23.1838C28.3781 23.3052 28.8145 23.3204 29.2344 23.228C29.6474 23.1413 30.032 22.9521 30.3529 22.6779C30.6737 22.4036 30.9204 22.0532 31.0704 21.6586C31.8065 19.7257 32.1584 17.6677 32.1064 15.6C31.9563 11.5386 30.2858 7.68194 27.4261 4.79427C24.5663 1.90661 20.726 0.198781 16.6664 0.00929776C14.5197 -0.0653445 12.3799 0.293018 10.3747 1.06302C8.36949 1.83302 6.53984 2.9989 4.99484 4.49114C3.44984 5.98339 2.22112 7.77144 1.38194 9.74872C0.542765 11.726 0.110307 13.852 0.110352 16C0.115292 20.2419 1.80259 24.3087 4.8021 27.3082C7.80161 30.3077 11.8684 31.995 16.1104 32C16.561 32 17.0037 31.9706 17.4437 31.9333C17.7775 31.9052 18.0886 31.7524 18.3149 31.5053C18.5412 31.2582 18.6662 30.935 18.665 30.6L18.6224 25.816C18.6116 24.8706 18.8828 23.9435 19.4013 23.1529C19.9199 22.3624 20.6623 21.7444 21.5338 21.3778C22.4053 21.0112 23.3662 20.9126 24.2939 21.0947C25.2217 21.2767 26.0741 21.7312 26.7424 22.4ZM22.8197 10.7333C23.202 10.6319 23.6058 10.646 23.98 10.7741C24.3543 10.9021 24.6821 11.1382 24.9222 11.4526C25.1622 11.767 25.3037 12.1455 25.3286 12.5402C25.3536 12.935 25.2609 13.3282 25.0624 13.6703C24.8639 14.0124 24.5683 14.288 24.2132 14.4621C23.8581 14.6363 23.4593 14.7012 23.0672 14.6487C22.6752 14.5962 22.3075 14.4287 22.0107 14.1672C21.7139 13.9058 21.5012 13.5622 21.3997 13.18C21.3322 12.9261 21.3155 12.6614 21.3503 12.401C21.3852 12.1406 21.471 11.8897 21.6028 11.6625C21.7347 11.4353 21.91 11.2363 22.1188 11.0768C22.3276 10.9174 22.5658 10.8007 22.8197 10.7333ZM10.513 22.6C10.1307 22.7014 9.72691 22.6872 9.35267 22.5592C8.97843 22.4311 8.65056 22.195 8.41051 21.8806C8.17047 21.5663 8.02902 21.1878 8.00406 20.7931C7.97911 20.3983 8.07176 20.005 8.2703 19.6629C8.46885 19.3208 8.76437 19.0453 9.1195 18.8711C9.47464 18.697 9.87344 18.6321 10.2655 18.6845C10.6575 18.737 11.0252 18.9046 11.322 19.166C11.6188 19.4275 11.8315 19.771 11.933 20.1533C12.0005 20.4072 12.0173 20.6719 11.9824 20.9323C11.9475 21.1926 11.8617 21.4436 11.7299 21.6708C11.598 21.898 11.4227 22.097 11.2139 22.2564C11.0051 22.4159 10.7669 22.5326 10.513 22.6ZM10.513 14.6C10.1307 14.7014 9.72691 14.6872 9.35267 14.5592C8.97843 14.4311 8.65056 14.195 8.41051 13.8806C8.17047 13.5663 8.02902 13.1878 8.00406 12.7931C7.97911 12.3983 8.07176 12.005 8.2703 11.6629C8.46885 11.3208 8.76437 11.0453 9.1195 10.8711C9.47464 10.697 9.87344 10.6321 10.2655 10.6845C10.6575 10.737 11.0252 10.9046 11.322 11.166C11.6188 11.4275 11.8315 11.771 11.933 12.1533C12.0005 12.4072 12.0173 12.6719 11.9824 12.9323C11.9475 13.1926 11.8617 13.4436 11.7299 13.6708C11.598 13.898 11.4227 14.097 11.2139 14.2564C11.0051 14.4159 10.7669 14.5326 10.513 14.6ZM17.1797 10.6C16.7974 10.7014 16.3936 10.6872 16.0193 10.5592C15.6451 10.4311 15.3172 10.195 15.0772 9.88065C14.8371 9.56629 14.6957 9.1878 14.6707 8.79305C14.6458 8.39831 14.7384 8.00502 14.937 7.66293C15.1355 7.32084 15.431 7.0453 15.7862 6.87115C16.1413 6.697 16.5401 6.63206 16.9321 6.68455C17.3242 6.73703 17.6918 6.90459 17.9887 7.16602C18.2855 7.42745 18.4981 7.77102 18.5997 8.1533C18.6671 8.40719 18.6839 8.67188 18.6491 8.93225C18.6142 9.19263 18.5284 9.44359 18.3965 9.67079C18.2647 9.89799 18.0893 10.097 17.8805 10.2564C17.6717 10.4159 17.4336 10.5326 17.1797 10.6Z" fill="#FF782D"/>
</g>
<defs>
<clipPath id="clip0_606_958">
<rect width="32" height="32" fill="white"/>
</clipPath>
</defs>
</svg>
