<svg width="32" height="32" viewBox="0 0 32 32" fill="none" xmlns="http://www.w3.org/2000/svg">
<path d="M27.9379 5.96589C27.9362 5.72922 27.8987 5.48839 27.8412 5.25839C27.4587 3.71172 26.1812 2.72922 24.5287 2.72172C22.5429 2.71339 20.5579 2.72005 18.5721 2.72005C14.1954 2.72005 9.81958 2.71589 5.44291 2.72172C3.43624 2.72422 1.99291 4.14339 1.99124 6.11505C1.98624 12.0626 1.98791 18.0101 1.99374 23.9576C1.99374 24.2351 2.02374 24.5201 2.08958 24.7892C2.45874 26.3109 3.73124 27.3267 5.33291 27.3326C9.14791 27.3476 12.9629 27.3376 16.7787 27.3376C16.8396 27.3376 16.9012 27.3284 17.0112 27.3201C17.0112 27.2151 17.0171 27.1334 17.0104 27.0534C16.9271 26.0192 17.2279 25.0992 17.7537 24.2117C19.0021 22.1026 20.2054 19.9667 21.4429 17.8509C21.7604 17.3067 22.0746 16.7784 21.9604 16.1126C21.9579 16.0959 21.9746 16.0759 21.9962 16.0234C22.4937 16.1851 22.6296 15.7892 22.8146 15.4617C22.8604 15.3809 22.9071 15.3001 22.9537 15.2184C23.1737 14.8351 23.3937 14.4526 23.6429 14.0201H21.9787V10.0517H25.9362C25.9446 10.2134 25.9512 10.3609 25.9579 10.4901C26.2887 10.3684 26.5896 10.2184 26.9079 10.1517C27.2362 10.0834 27.5804 10.0976 27.9346 10.0742C27.9379 10.0276 27.9437 9.97755 27.9437 9.92755C27.9437 8.60672 27.9471 7.28589 27.9379 5.96589ZM7.95458 25.3209C6.98458 25.3209 6.02041 25.3534 5.06041 25.3084C4.51874 25.2826 4.03708 24.7542 4.00541 24.1934C3.96541 23.4817 3.99541 22.7651 3.99541 22.0234H7.95458V25.3209ZM7.95624 20.0009H4.00374V16.0426H7.95624V20.0009ZM7.96291 14.0059H4.00791V10.0509H7.96291V14.0059ZM7.96291 8.02255H3.98624V7.36089C3.98624 6.91422 3.97874 6.46755 3.98874 6.02089C4.00208 5.38755 4.45791 4.78339 5.05791 4.75089C6.01874 4.69922 6.98374 4.73672 7.96291 4.73672V8.02255ZM18.5162 16.5851C17.1837 17.3492 15.8554 18.1192 14.5246 18.8876C14.1654 19.0951 13.8062 19.3042 13.4462 19.5101C12.3537 20.1342 11.3021 19.5317 11.2979 18.2784C11.2946 17.3017 11.2971 16.3251 11.2971 15.3476C11.2971 14.3817 11.2954 13.4151 11.2979 12.4484C11.3012 11.1892 12.3529 10.5851 13.4429 11.2134C15.1421 12.1934 16.8404 13.1759 18.5404 14.1542C18.9962 14.4167 19.2762 14.7884 19.2871 15.3292C19.2979 15.9101 19.0054 16.3042 18.5162 16.5851ZM25.9479 8.01422H21.9662V4.73922C22.0562 4.73172 22.1446 4.71755 22.2329 4.71755C22.9912 4.71589 23.7496 4.71339 24.5079 4.71755C25.4087 4.72255 25.9437 5.25672 25.9471 6.15089C25.9496 6.76422 25.9479 7.37672 25.9479 8.01422Z" fill="#FF782D"/>
<path d="M25.0829 14.1951C23.047 17.7226 21.022 21.2309 18.9854 24.7592C20.1554 25.4342 21.2912 26.0901 22.4454 26.7559C24.4862 23.2209 26.5112 19.7126 28.5429 16.1917C27.3695 15.5142 26.2395 14.8626 25.0829 14.1951ZM25.2345 19.2301C25.0429 19.5409 24.6604 19.6001 24.3554 19.4159C24.067 19.2409 23.937 18.8826 24.1029 18.5759C24.4379 17.9551 24.7887 17.3417 25.1662 16.7459C25.2637 16.5926 25.4837 16.5159 25.6479 16.4042C26.1754 16.4542 26.5212 16.9551 26.292 17.3976C25.967 18.0234 25.6054 18.6309 25.2345 19.2301Z" fill="#FF782D"/>
<path d="M27.9437 23.9117C27.937 25.885 26.5295 27.3084 24.5595 27.3375C24.2804 27.3409 24.0012 27.3375 23.6445 27.3375C24.0387 26.655 24.3979 26.0267 24.767 25.405C24.802 25.3467 24.8995 25.3167 24.9737 25.29C25.6179 25.0634 25.962 24.6134 25.9395 23.9309C25.9262 23.5184 26.0329 23.1717 26.2437 22.8217C26.8037 21.8909 27.3362 20.9425 27.9212 19.9292C27.932 20.095 27.9437 20.1809 27.9437 20.2667C27.9445 21.4817 27.947 22.6967 27.9437 23.9117Z" fill="#FF782D"/>
<path d="M29.7953 14.01C29.6228 14.3508 29.4178 14.675 29.2094 15.0383C28.0403 14.3642 26.9036 13.7083 25.7461 13.0408C25.9703 12.6608 26.1594 12.2908 26.3936 11.9533C26.7636 11.4208 27.4736 11.2567 28.0578 11.5617C28.4894 11.7867 28.9119 12.0308 29.3228 12.2917C29.9153 12.6667 30.1119 13.3858 29.7953 14.01Z" fill="#FF782D"/>
<path d="M21.6958 27.8634C21.4999 28.0067 21.3524 28.1376 21.1849 28.2334C20.5908 28.5734 19.9941 28.9092 19.3908 29.2326C18.9383 29.4759 18.4199 29.2634 18.3916 28.7834C18.3424 27.9351 18.3624 27.0826 18.3574 26.2309C18.3574 26.1617 18.3916 26.0909 18.4224 25.9734C19.5224 26.6084 20.5866 27.2234 21.6958 27.8634Z" fill="#FF782D"/>
</svg>
