<svg width="31" height="27" viewBox="0 0 31 27" fill="none" xmlns="http://www.w3.org/2000/svg">
<path d="M2.1132 11.2159C-0.290957 9.2258 -0.368305 6.30387 0.605368 4.41658C1.67186 2.34639 3.88492 1.17616 6.23902 1.49465C8.23551 1.76492 10.3239 3.24363 10.8571 6.00358C11.3449 2.43193 13.2568 0.235249 16.9622 0.0104848C19.562 -0.146941 21.8724 1.48373 22.8279 3.86878C23.7515 6.17466 23.2747 9.12115 20.8469 11.0803C20.9197 11.1213 20.9824 11.1604 21.048 11.1913C22.4693 11.8538 23.2465 12.9703 23.2656 14.5355C23.2974 17.1808 23.2947 19.8261 23.2683 22.4714C23.2465 24.6089 21.664 26.1477 19.5328 26.1495C14.2768 26.1541 9.02173 26.1541 3.76571 26.1495C1.61635 26.1477 0.0311741 24.598 0.0147945 22.4505C-0.00522491 19.8161 -0.00522496 17.1826 0.0166144 14.5482C0.0284441 13.1296 0.681806 12.0558 1.91391 11.3406C1.97943 11.3024 2.04313 11.2596 2.1132 11.2159ZM17.105 9.06201C18.7057 9.05564 20.0069 7.75164 20.0024 6.15828C19.9978 4.55035 18.6757 3.24454 17.0632 3.25728C15.4735 3.27002 14.1649 4.59949 14.1831 6.18375C14.2022 7.78895 15.5007 9.06838 17.105 9.06201ZM7.63766 6.90355C7.64403 5.69237 6.67672 4.71142 5.471 4.70596C4.27894 4.7005 3.28069 5.69783 3.28251 6.89172C3.28433 8.08287 4.248 9.052 5.44189 9.06201C6.65943 9.07293 7.63038 8.11745 7.63766 6.90355ZM5.84227 21.0582C5.3882 21.0582 4.93412 21.0518 4.48004 21.06C3.97592 21.0691 3.66561 21.3458 3.65924 21.7771C3.65287 22.2248 3.96682 22.5169 4.48732 22.5205C5.38456 22.5278 6.28088 22.5278 7.17812 22.5205C7.67496 22.516 7.99801 22.2257 8.00711 21.8035C8.01621 21.3712 7.68133 21.0682 7.16993 21.06C6.72768 21.0527 6.28452 21.0582 5.84227 21.0582ZM9.1928 10.8701C10.5141 10.8701 11.7662 10.8701 13.0957 10.8701C11.8645 9.79454 11.1902 8.47962 10.9299 6.93994C10.8872 8.47234 10.3021 9.75723 9.1928 10.8701Z" fill="#FF782D"/>
<path d="M31.9958 18.5193C31.9958 19.9389 32.004 21.3576 31.9931 22.7771C31.9822 24.1903 30.9594 25.1767 29.6071 25.0511C29.2705 25.0202 28.9219 24.8828 28.6235 24.7154C27.3886 24.0201 26.172 23.2913 24.9444 22.5842C24.7752 22.4868 24.7188 22.3758 24.7188 22.1829C24.7251 19.7424 24.7251 17.3009 24.7188 14.8603C24.7179 14.6683 24.7724 14.5555 24.9426 14.4581C26.1711 13.7511 27.3895 13.0276 28.6189 12.3215C30.2232 11.3997 31.9758 12.407 31.9931 14.2643C32.0068 15.6811 31.9958 17.1007 31.9958 18.5193Z" fill="#FF782D"/>
</svg>
