<svg width="32" height="32" viewBox="0 0 32 32" fill="none" xmlns="http://www.w3.org/2000/svg">
<path d="M31.5535 6.78584C31.8893 7.11084 32.061 7.47834 31.8676 7.9325C31.681 8.37084 31.3135 8.50584 30.8551 8.50417C29.0351 8.49584 27.2151 8.50084 25.396 8.50084H24.9985V11.8333C25.0826 11.84 25.1718 11.8525 25.261 11.8525C25.8851 11.855 26.5093 11.8525 27.1326 11.8542C27.836 11.8558 28.201 12.225 28.2018 12.9367C28.2035 14.2158 28.2026 15.4942 28.2026 16.7733C28.2026 21.41 28.196 26.0467 28.211 30.6842C28.2126 31.2625 28.056 31.6917 27.5168 31.9417H19.7168C19.7193 31.0892 19.7235 30.2367 19.7235 29.3842V13.0408C19.7235 12.1842 20.0543 11.8542 20.9101 11.8533C21.6068 11.8533 22.3035 11.8517 23.0001 11.8492C23.0193 11.8492 23.0385 11.8375 23.1001 11.8175V11.4708C23.1001 8.03917 23.0993 4.60834 23.1026 1.1775C23.1026 1.0025 23.111 0.820838 23.1585 0.654171C23.2776 0.231671 23.7126 -0.0441619 24.1426 0.00583808C24.5843 0.0566714 24.9301 0.407505 24.9643 0.850838C24.9776 1.03417 24.966 1.21917 24.966 1.4375H25.3385C27.1793 1.4375 29.0201 1.44167 30.8601 1.435C31.306 1.43334 31.6635 1.56834 31.8568 1.98667C32.0576 2.42167 31.9101 2.78834 31.5993 3.12084C31.0093 3.75 30.4276 4.38834 29.8226 5.045C29.8926 5.1225 29.9568 5.19834 30.0268 5.26834C30.5343 5.77584 31.0385 6.28584 31.5535 6.78584Z" fill="#FF782D"/>
<path d="M17.8494 20.1267C17.851 24.065 17.8477 28.0034 17.8452 31.9417H10.4827C10.4819 28.0134 10.4794 24.0859 10.481 20.1575C10.481 19.57 10.8627 19.1717 11.4535 19.1684C13.2619 19.1592 15.071 19.1592 16.8794 19.1684C17.4594 19.1717 17.8485 19.5617 17.8494 20.1267Z" fill="#FF782D"/>
<path d="M8.61057 31.9417H0.998073C0.458906 31.715 0.278073 31.3084 0.286406 30.7309C0.310573 28.9959 0.293906 27.2609 0.295573 25.525C0.295573 24.7542 0.646406 24.405 1.42141 24.405C3.43724 24.4042 5.45391 24.4042 7.46974 24.405C8.25474 24.405 8.60641 24.7609 8.60724 25.5509C8.60891 27.6809 8.60974 29.8117 8.61057 31.9417Z" fill="#FF782D"/>
<path d="M17.12 8.46421C16.6392 8.69088 16.115 8.48588 15.8483 7.96255C15.6417 7.55672 15.4417 7.14921 15.2175 6.70005C15.145 6.82421 15.0917 6.90588 15.0458 6.99171C11.9825 12.6809 7.51 16.855 1.60667 19.4909C0.789167 19.8559 0.465 19.7592 0 19.0284V18.5292C0.161667 18.1384 0.476667 17.94 0.8525 17.7734C6.325 15.34 10.475 11.4734 13.3375 6.21922C13.395 6.11338 13.4433 6.00338 13.5267 5.83422C12.9742 5.94422 12.49 6.04838 12.0025 6.13505C11.5833 6.20922 11.1767 5.98505 11.0042 5.60672C10.7608 5.07172 11.0575 4.44255 11.6425 4.31255C12.7375 4.07005 13.835 3.84088 14.935 3.62088C15.4725 3.51338 15.8117 3.69005 16.0567 4.18005C16.5508 5.16338 17.0417 6.14838 17.5258 7.13671C17.7883 7.67255 17.6108 8.23255 17.12 8.46421Z" fill="#FF782D"/>
</svg>
