<svg width="29" height="29" viewBox="0 0 29 29" fill="none" xmlns="http://www.w3.org/2000/svg">
<path d="M0.00013332 8.66345V8.99179C0.00013332 14.0551 -0.000699975 19.1185 0.00180002 24.1818C0.00180002 24.431 0.00346673 24.6835 0.0451334 24.9276C0.415133 27.1301 2.15347 28.6035 4.40097 28.6076C8.40263 28.6143 12.4051 28.6093 16.4076 28.6093H16.7443C16.686 28.3751 16.6285 28.1968 16.6001 28.0143C16.3701 26.5468 16.1626 25.076 15.9143 23.6118C15.7926 22.8985 15.8693 22.246 16.181 21.586C17.6268 18.5268 19.0485 15.4551 20.4801 12.3893C21.4343 10.346 23.516 9.58429 25.5601 10.5351C26.5726 11.0051 27.5785 11.4893 28.5768 11.9626V8.66345H0.00013332ZM11.5726 24.6143C10.4818 24.6201 9.3918 24.616 8.30097 24.616C7.20013 24.6151 6.0993 24.616 4.99847 24.6151C4.59763 24.6151 4.29513 24.4343 4.10847 24.0876C3.92763 23.7518 3.94597 23.4043 4.15097 23.081C4.35097 22.766 4.65597 22.6218 5.0218 22.6218C7.21263 22.6185 9.4043 22.6151 11.596 22.6226C12.2093 22.6251 12.636 23.061 12.631 23.6335C12.626 24.2076 12.1985 24.611 11.5726 24.6143ZM14.5118 19.271C14.3918 19.2976 14.2643 19.296 14.141 19.296C12.6343 19.2976 11.1285 19.2968 9.62263 19.2968C8.09597 19.2968 6.5693 19.3001 5.04263 19.2951C4.32513 19.2926 3.84097 18.6776 4.02597 18.021C4.14847 17.586 4.53847 17.3026 5.03847 17.301C6.2743 17.2976 7.51097 17.3001 8.7468 17.3001C10.5851 17.3001 12.4235 17.2976 14.2618 17.3018C14.8118 17.3026 15.2376 17.6768 15.2951 18.1876C15.351 18.6885 15.0143 19.161 14.5118 19.271ZM15.2743 13.1843C15.1776 13.5918 14.9185 13.8585 14.4993 13.9435C14.3685 13.9701 14.2318 13.976 14.0976 13.976C12.6118 13.9785 11.1268 13.9776 9.6418 13.9776C8.12597 13.9776 6.6093 13.9801 5.09347 13.976C4.41847 13.9735 3.9768 13.546 3.99597 12.9326C4.0118 12.4285 4.3918 12.0285 4.89513 11.9876C4.97763 11.981 5.06097 11.981 5.1443 11.981C8.14513 11.981 11.1468 11.9751 14.1485 11.991C14.4101 11.9918 14.7076 12.0785 14.926 12.221C15.2526 12.4343 15.366 12.796 15.2743 13.1843Z" fill="#FF782D"/>
<path d="M28.5971 4.34346C28.5787 3.92096 28.5354 3.48846 28.4179 3.08513C27.8687 1.1918 26.2087 0.00179558 24.1504 0.00096225C17.5904 -0.000704416 11.0304 0.000128917 4.46956 0.00096225C4.34539 0.00096225 4.22039 0.00179556 4.09539 0.00679556C2.13039 0.0826289 0.369559 1.57513 0.0920594 3.5243C-0.0437739 4.47346 0.0237261 5.45263 0.00205944 6.41763C0.000392771 6.48596 0.0187261 6.55513 0.0287261 6.63346H28.5904C28.5954 6.53596 28.6037 6.43763 28.6046 6.33929C28.6054 5.67346 28.6254 5.00763 28.5971 4.34346ZM5.64456 4.6468C5.10039 4.6443 4.65206 4.19763 4.65039 3.6568C4.64956 3.1068 5.12623 2.6393 5.67206 2.65513C6.21706 2.67013 6.64789 3.1193 6.64206 3.66846C6.63623 4.22013 6.19956 4.6493 5.64456 4.6468ZM8.98873 4.6468C8.43456 4.65096 7.99539 4.22263 7.98873 3.6718C7.98123 3.1093 8.43039 2.65013 8.98456 2.6543C9.51873 2.65846 9.97789 3.1193 9.97956 3.65346C9.98123 4.1943 9.53456 4.64263 8.98873 4.6468ZM12.3162 4.64596C11.7679 4.65013 11.3171 4.21513 11.3087 3.67263C11.3004 3.1168 11.7579 2.6518 12.3104 2.65513C12.8487 2.65846 13.3021 3.11346 13.3037 3.6518C13.3054 4.19596 12.8621 4.6418 12.3162 4.64596Z" fill="#FF782D"/>
<path d="M26.8431 19.2084C26.6564 19.6084 26.4789 19.9918 26.3006 20.3743C25.5248 22.0393 24.7456 23.7034 23.9756 25.3709C23.8356 25.6759 23.6356 25.9034 23.3473 26.0768C22.0748 26.8418 20.8089 27.6184 19.5389 28.3876C18.7431 28.8701 18.0139 28.5293 17.8714 27.6084C17.6398 26.1101 17.4064 24.6118 17.1923 23.1109C17.1614 22.8959 17.1814 22.6401 17.2706 22.4451C18.2264 20.3601 19.2014 18.2843 20.1714 16.2059C20.1798 16.1884 20.1973 16.1743 20.2373 16.1284C22.4373 17.1543 24.6264 18.1751 26.8431 19.2084Z" fill="#FF782D"/>
<path d="M28.4966 15.5868C28.2849 16.2001 27.9758 16.7801 27.6983 17.4034C25.4724 16.3659 23.2791 15.3426 21.0508 14.3034C21.3249 13.7259 21.5574 13.1818 21.8358 12.6609C22.3858 11.6334 23.6149 11.1709 24.6916 11.6184C25.6199 12.0043 26.5333 12.4301 27.4258 12.8909C28.3833 13.3859 28.8499 14.5626 28.4966 15.5868Z" fill="#FF782D"/>
<path d="M28.6031 24.2409C28.5906 26.4642 27.1181 28.2209 24.9206 28.5517C24.1673 28.6651 23.3864 28.5967 22.6173 28.6084C22.3689 28.6126 22.1206 28.6092 21.8714 28.6092C21.8648 28.5867 21.8573 28.5642 21.8506 28.5417C22.5573 28.1117 23.2556 27.6676 23.9723 27.2551C24.5456 26.9259 24.9406 26.4676 25.2164 25.8684C26.2698 23.5767 27.3423 21.2934 28.4081 19.0076C28.4498 18.9167 28.4981 18.8284 28.5798 18.6667C28.5923 18.8184 28.6039 18.8942 28.6039 18.9692C28.6056 20.7267 28.6131 22.4834 28.6031 24.2409Z" fill="#FF782D"/>
</svg>
