<svg width="32" height="32" viewBox="0 0 32 32" fill="none" xmlns="http://www.w3.org/2000/svg">
<path d="M24.0964 23.0158C23.7031 18.4683 19.5414 15.1058 14.9922 15.6591C10.6131 16.1925 7.40806 20.11 7.86223 24.5075C8.22139 27.9766 10.1431 30.3075 13.4139 31.5C14.0106 31.7183 14.6606 31.7908 15.2864 31.9308H16.6589C16.8106 31.905 16.9622 31.8758 17.1147 31.8533C21.4439 31.2158 24.4739 27.38 24.0964 23.0158ZM17.1481 28.9208C17.0722 28.9525 16.9964 28.9833 16.9072 29.0191V30.4125H15.0447V29.0325C13.5289 28.3091 12.7656 27.2633 12.8414 25.9966H14.6472C14.6706 26.0758 14.6947 26.1416 14.7089 26.21C14.8589 26.9166 15.4289 27.3358 16.1389 27.2591C16.7706 27.1916 17.2739 26.6141 17.2614 25.9716C17.2472 25.285 16.7197 24.7258 16.0106 24.7058C15.0681 24.6791 14.2664 24.355 13.6331 23.6541C12.1722 22.0383 12.7322 19.5066 14.7464 18.6458C14.9764 18.5475 15.0581 18.4375 15.0422 18.1925C15.0197 17.8425 15.0364 17.4891 15.0364 17.1125H16.9081C16.9081 17.5008 16.9222 17.8725 16.9031 18.2425C16.8922 18.4533 16.9647 18.5433 17.1589 18.6275C18.3389 19.1383 18.9914 20.045 19.1197 21.3258C19.1256 21.3858 19.1197 21.4466 19.1197 21.5275H17.2897C17.2697 21.45 17.2464 21.3725 17.2297 21.2933C17.0856 20.6191 16.4906 20.19 15.8072 20.2683C15.1647 20.3416 14.6531 20.9441 14.6847 21.5908C14.7189 22.2716 15.2422 22.7908 15.9314 22.8266C17.5189 22.9083 18.6839 23.8125 19.0347 25.235C19.4114 26.765 18.6206 28.3116 17.1481 28.9208Z" fill="#FF782D"/>
<path d="M8.3725 16.9259C8.37083 17.0942 8.29833 17.2917 8.19417 17.4242C7.47917 18.3284 6.90833 19.3101 6.52333 20.3984C6.47333 20.5384 6.43833 20.6559 6.2375 20.6551C4.15833 20.6442 2.07917 20.6434 0 20.6392V18.7676H3.60833V12.4109H8.38083V12.7467C8.38083 14.1401 8.38667 15.5326 8.3725 16.9259Z" fill="#FF782D"/>
<path d="M31.9262 18.7783V20.6333C31.8246 20.6392 31.7246 20.65 31.6254 20.65C29.6921 20.6508 27.7587 20.6458 25.8262 20.6567C25.5904 20.6575 25.4812 20.5908 25.4029 20.365C25.0304 19.2842 24.4571 18.315 23.7471 17.4208C23.6479 17.295 23.5721 17.1092 23.5721 16.9517C23.5629 11.4025 23.5646 5.85333 23.5646 0.304167V0H28.3279V18.7783H31.9262Z" fill="#FF782D"/>
<path d="M21.6668 4.13501V15.4133C20.9159 15.0567 20.1768 14.6375 19.3901 14.3508C18.6059 14.065 17.7726 13.9125 16.9268 13.6933V4.13501H21.6668Z" fill="#FF782D"/>
<path d="M15.0127 8.28003V13.6942C14.1811 13.9109 13.3411 14.0667 12.5486 14.3542C11.7677 14.6384 11.0344 15.0559 10.2744 15.4175V8.28003H15.0127Z" fill="#FF782D"/>
</svg>
